<svg xmlns="http://www.w3.org/2000/svg" width="101.4" height="101.4" viewBox="0 0 101.4 101.4">
  <path id="prev-btn" d="M0,50.7A50.7,50.7,0,1,0,50.7,0,50.7,50.7,0,0,0,0,50.7Zm4.8,0A45.9,45.9,0,1,1,50.7,96.6,45.964,45.964,0,0,1,4.8,50.7Zm49-21a2.478,2.478,0,0,0,0,3.4L69,48.3H26.5a2.4,2.4,0,1,0,.1,4.8H69L53.8,68.3a2.4,2.4,0,0,0,3.4,3.4L76.6,52.4a2.173,2.173,0,0,0,.5-.8,2.773,2.773,0,0,0,0-1.8,2.177,2.177,0,0,0-.5-.8L57.2,29.7a2.414,2.414,0,0,0-3.4,0Z" transform="translate(101.4 101.4) rotate(180)" fill="currentColor"/>
</svg>
